<?xml version="1.0" encoding="UTF-8" standalone="no"?>
<!-- Generator: Adobe Illustrator 16.0.0, SVG Export Plug-In . SVG Version: 6.00 Build 0)  -->

<svg
   xmlns:dc="http://purl.org/dc/elements/1.1/"
   xmlns:cc="http://creativecommons.org/ns#"
   xmlns:rdf="http://www.w3.org/1999/02/22-rdf-syntax-ns#"
   xmlns:svg="http://www.w3.org/2000/svg"
   xmlns="http://www.w3.org/2000/svg"
   xmlns:sodipodi="http://sodipodi.sourceforge.net/DTD/sodipodi-0.dtd"
   xmlns:inkscape="http://www.inkscape.org/namespaces/inkscape"
   version="1.1"
   id="Layer_1"
   x="0px"
   y="0px"
   width="210"
   height="210"
   viewBox="0 0 210 210"
   enable-background="new 0 0 512 512"
   xml:space="preserve"
   inkscape:version="0.91 r13725"
   sodipodi:docname="icon.svg"
   inkscape:export-filename="C:\Users\Web\Desktop\tmpDrop-local\icon-256x256.png"
   inkscape:export-xdpi="109.71"
   inkscape:export-ydpi="109.71"><sodipodi:namedview
     pagecolor="#ffffff"
     bordercolor="#666666"
     borderopacity="1"
     objecttolerance="10"
     gridtolerance="10"
     guidetolerance="10"
     inkscape:pageopacity="0"
     inkscape:pageshadow="2"
     inkscape:window-width="1920"
     inkscape:window-height="1028"
     id="namedview17"
     showgrid="false"
     inkscape:zoom="1.84375"
     inkscape:cx="156.80779"
     inkscape:cy="163.06605"
     inkscape:window-x="-8"
     inkscape:window-y="-8"
     inkscape:window-maximized="1"
     inkscape:current-layer="Layer_1" /><metadata
     id="metadata21"><rdf:RDF><cc:Work
         rdf:about=""><dc:format>image/svg+xml</dc:format><dc:type
           rdf:resource="http://purl.org/dc/dcmitype/StillImage" /><dc:title></dc:title></cc:Work></rdf:RDF></metadata><defs
     id="defs19" /><g
     id="g4242"
     transform="translate(0.79773021,70.511599)"><g
       id="g3349"
       transform="matrix(0.20961644,0,0,0.20961644,104.11042,-18.49133)"
       style="fill:#70b840;fill-opacity:1"><polygon
         id="polygon3351"
         points="451.5,132.5 451.482,132.5 353.74,89.5 256,46.5 158.26,89.5 60.519,132.5 60.5,132.5 60.5,182.5 451.5,182.5 "
         style="fill:#70b840;fill-opacity:1" /><path
         id="path3353"
         d="m 99,365.5 c -5.799,0 -10.5,4.701 -10.5,10.5 0,5.799 4.701,10.5 10.5,10.5 l 62,0 c 5.799,0 10.5,-4.701 10.5,-10.5 0,-5.799 -4.701,-10.5 -10.5,-10.5 l -3.5,0 0,-150 3.5,0 c 5.799,0 10.5,-4.701 10.5,-10.5 0,-5.799 -4.701,-10.5 -10.5,-10.5 l -62,0 c -5.799,0 -10.5,4.701 -10.5,10.5 0,5.799 4.701,10.5 10.5,10.5 l 3.5,0 0,150 -3.5,0 z"
         inkscape:connector-curvature="0"
         style="fill:#70b840;fill-opacity:1" /><path
         id="path3355"
         d="m 225,365.5 c -5.799,0 -10.5,4.701 -10.5,10.5 0,5.799 4.701,10.5 10.5,10.5 l 62,0 c 5.799,0 10.5,-4.701 10.5,-10.5 0,-5.799 -4.701,-10.5 -10.5,-10.5 l -3.5,0 0,-150 3.5,0 c 5.799,0 10.5,-4.701 10.5,-10.5 0,-5.799 -4.701,-10.5 -10.5,-10.5 l -62,0 c -5.799,0 -10.5,4.701 -10.5,10.5 0,5.799 4.701,10.5 10.5,10.5 l 3.5,0 0,150 -3.5,0 z"
         inkscape:connector-curvature="0"
         style="fill:#70b840;fill-opacity:1" /><path
         id="path3357"
         d="m 353,365.5 c -5.799,0 -10.5,4.701 -10.5,10.5 0,5.799 4.701,10.5 10.5,10.5 l 62,0 c 5.799,0 10.5,-4.701 10.5,-10.5 0,-5.799 -4.701,-10.5 -10.5,-10.5 l -3.5,0 0,-150 3.5,0 c 5.799,0 10.5,-4.701 10.5,-10.5 0,-5.799 -4.701,-10.5 -10.5,-10.5 l -62,0 c -5.799,0 -10.5,4.701 -10.5,10.5 0,5.799 4.701,10.5 10.5,10.5 l 3.5,0 0,150 -3.5,0 z"
         inkscape:connector-curvature="0"
         style="fill:#70b840;fill-opacity:1" /><path
         id="path3359"
         d="m 60.51,408.5 0,6 c 0,5.522 4.477,10 10,10 l 370.98,0 c 5.522,0 10,-4.478 10,-10 l 0,-6 c 0,-5.522 -4.478,-10 -10,-10 l -370.98,0 c -5.523,0 -10,4.477 -10,10 z"
         inkscape:connector-curvature="0"
         style="fill:#70b840;fill-opacity:1" /><path
         id="path3361"
         d="m 467.5,436.5 -423,0 c -5.523,0 -10,4.478 -10,10 l 0,9 c 0,5.522 4.477,10 10,10 l 423,0 c 5.522,0 10,-4.478 10,-10 l 0,-9 c 0,-5.523 -4.477,-10 -10,-10 z"
         inkscape:connector-curvature="0"
         style="fill:#70b840;fill-opacity:1" /></g><g
       transform="matrix(0.36218072,0,0,0.28748027,7.0790593,-36.79567)"
       id="g4238"><rect
         y="252.06509"
         x="130.01285"
         height="50.014629"
         width="248.55756"
         id="rect3363"
         style="opacity:1;fill:#19264b;fill-opacity:1;stroke:none;stroke-width:1.10000002;stroke-linecap:round;stroke-linejoin:round;stroke-miterlimit:4;stroke-dasharray:none;stroke-dashoffset:0;stroke-opacity:1" /><path
         id="path4202"
         d="m 339.63816,227.07241 0,100 86.60254,-50 -86.60254,-50 z"
         style="fill:#19264b;fill-opacity:1;stroke:none;stroke-width:2"
         inkscape:label="Triangle"
         inkscape:connector-curvature="0" /></g><g
       id="g3"
       transform="matrix(0.25309524,0,0,0.25309524,-4.5295163,-30.30398)"
       style="fill:#314979;fill-opacity:1"><polygon
         points="451.5,182.5 451.5,132.5 451.482,132.5 353.74,89.5 256,46.5 158.26,89.5 60.519,132.5 60.5,132.5 60.5,182.5 "
         id="polygon5"
         style="fill:#314979;fill-opacity:1" /><path
         d="m 99,365.5 c -5.799,0 -10.5,4.701 -10.5,10.5 0,5.799 4.701,10.5 10.5,10.5 l 62,0 c 5.799,0 10.5,-4.701 10.5,-10.5 0,-5.799 -4.701,-10.5 -10.5,-10.5 l -3.5,0 0,-150 3.5,0 c 5.799,0 10.5,-4.701 10.5,-10.5 0,-5.799 -4.701,-10.5 -10.5,-10.5 l -62,0 c -5.799,0 -10.5,4.701 -10.5,10.5 0,5.799 4.701,10.5 10.5,10.5 l 3.5,0 0,150 -3.5,0 z"
         id="path7"
         inkscape:connector-curvature="0"
         style="fill:#314979;fill-opacity:1" /><path
         d="m 225,365.5 c -5.799,0 -10.5,4.701 -10.5,10.5 0,5.799 4.701,10.5 10.5,10.5 l 62,0 c 5.799,0 10.5,-4.701 10.5,-10.5 0,-5.799 -4.701,-10.5 -10.5,-10.5 l -3.5,0 0,-150 3.5,0 c 5.799,0 10.5,-4.701 10.5,-10.5 0,-5.799 -4.701,-10.5 -10.5,-10.5 l -62,0 c -5.799,0 -10.5,4.701 -10.5,10.5 0,5.799 4.701,10.5 10.5,10.5 l 3.5,0 0,150 -3.5,0 z"
         id="path9"
         inkscape:connector-curvature="0"
         style="fill:#314979;fill-opacity:1" /><path
         d="m 353,365.5 c -5.799,0 -10.5,4.701 -10.5,10.5 0,5.799 4.701,10.5 10.5,10.5 l 62,0 c 5.799,0 10.5,-4.701 10.5,-10.5 0,-5.799 -4.701,-10.5 -10.5,-10.5 l -3.5,0 0,-150 3.5,0 c 5.799,0 10.5,-4.701 10.5,-10.5 0,-5.799 -4.701,-10.5 -10.5,-10.5 l -62,0 c -5.799,0 -10.5,4.701 -10.5,10.5 0,5.799 4.701,10.5 10.5,10.5 l 3.5,0 0,150 -3.5,0 z"
         id="path11"
         inkscape:connector-curvature="0"
         style="fill:#314979;fill-opacity:1" /><path
         d="m 60.51,408.5 0,6 c 0,5.522 4.477,10 10,10 l 370.98,0 c 5.522,0 10,-4.478 10,-10 l 0,-6 c 0,-5.522 -4.478,-10 -10,-10 l -370.98,0 c -5.523,0 -10,4.477 -10,10 z"
         id="path13"
         inkscape:connector-curvature="0"
         style="fill:#314979;fill-opacity:1" /><path
         d="m 467.5,436.5 -423,0 c -5.523,0 -10,4.478 -10,10 l 0,9 c 0,5.522 4.477,10 10,10 l 423,0 c 5.522,0 10,-4.478 10,-10 l 0,-9 c 0,-5.523 -4.477,-10 -10,-10 z"
         id="path15"
         inkscape:connector-curvature="0"
         style="fill:#314979;fill-opacity:1" /></g></g></svg>